<svg width="5279" height="3699" viewBox="0 0 5279 3699" fill="none" xmlns="http://www.w3.org/2000/svg">
<path d="M483 1177L483 3697" stroke="#7C1936" stroke-width="45"/>
<path d="M278 1179L278 3699" stroke="#C32227" stroke-width="45"/>
<path d="M329 1179L329 3698" stroke="#F2723A" stroke-width="45"/>
<path d="M381 1178L381 3698" stroke="#FCB438" stroke-width="45"/>
<path d="M432 1178L432 3697" stroke="#0C7E79" stroke-width="45"/>
<path d="M482.998 1177C482.999 1043.5 454.64 709 680.894 709" stroke="#7C1936" stroke-width="45"/>
<path d="M0 23H4843" stroke="#7C1936" stroke-width="45"/>
<path d="M0 228H4843" stroke="#C32227" stroke-width="45"/>
<path d="M0 177H4843" stroke="#F2723A" stroke-width="45"/>
<path d="M0 125H4843" stroke="#FCB438" stroke-width="45"/>
<path d="M0 74H4843" stroke="#0C7E79" stroke-width="45"/>
<path d="M4843.29 705.688L664.266 708.952" stroke="#7C1936" stroke-width="45"/>
<path d="M4843.03 487.305L664 490.896" stroke="#C32227" stroke-width="45"/>
<path d="M4843.09 541.9L664.067 545.492" stroke="#F2723A" stroke-width="45"/>
<path d="M4843.16 596.496L664.129 600.057" stroke="#FCB438" stroke-width="45"/>
<path d="M4843.23 651.092L664.2 654.653" stroke="#0C7E79" stroke-width="45"/>
<path d="M4834.98 74.3053C5330.75 70.5074 5308.47 647.064 4834.93 650.691" stroke="#0C7E79" stroke-width="45"/>
<path d="M4811.58 23.385C5416.6 18.7503 5391.1 701.213 4813.22 705.64" stroke="#7C1936" stroke-width="45"/>
<path d="M4840.5 125.304C5248.19 122.181 5232.04 593.616 4842.65 596.599" stroke="#FCB438" stroke-width="45"/>
<path d="M4842 228.306C5085.05 226.444 5074.83 485.569 4842.67 487.347" stroke="#C32227" stroke-width="45"/>
<path d="M4842.5 177.305C5169.41 174.801 5155.03 539.402 4842.79 541.793" stroke="#F2723A" stroke-width="45"/>
<path d="M328.999 1180C328.998 965.5 255.497 545 667 545" stroke="#F2723A" stroke-width="45"/>
<path d="M277.998 1180.5C277.997 910.5 205.21 491 672.5 491" stroke="#C32227" stroke-width="45"/>
<path d="M380.502 1183C380.501 1074.5 298.499 600 669.002 600" stroke="#FCB438" stroke-width="45"/>
<path d="M432.002 1178C432 1046 382 654 686.502 654" stroke="#0C7E79" stroke-width="45"/>
</svg>
